<svg width="418" height="95" viewBox="0 0 418 95" fill="none" xmlns="http://www.w3.org/2000/svg">
<path d="M46.2578 20.075C46.2578 19.8781 46 19.8367 45.8711 19.8406C34.7812 19.8445 12.2148 19.8523 10.668 19.8523C9.12109 19.8523 8.34375 21.4929 8.14844 22.3132V62.989C8.14844 63.2046 8.01562 63.407 7.94922 63.4812L0.390625 72.446V73.864C1.00937 76.4046 3.60938 77.2039 4.83203 77.2859C28.9297 77.3171 77.7625 77.3609 80.3125 77.2859C82.8625 77.2109 83.9297 74.6843 84.1445 73.4304V72.7624C82.0312 70.0828 77.6828 64.5898 77.1953 64.0554C76.7078 63.521 76.5625 63.239 76.5508 63.1648V48.3992H72.1445C72.1328 50.657 72.1164 55.7187 72.1445 57.9031C72.1727 60.0875 70.4141 60.6335 69.5312 60.6335C52.0625 60.6531 16.668 60.6804 14.8398 60.6335C13.0117 60.5867 12.5937 58.6765 12.6133 57.7273C12.5937 47.2468 12.5664 25.9882 12.6133 24.7976C12.6602 23.607 13.9922 22.8484 14.6523 22.6179H45.8711C46.1055 22.6179 46.2266 22.3054 46.2578 22.1492V20.075Z" fill="white" stroke="white" stroke-width="0.421875"/>
<path d="M35.4297 73.8989C35.5891 73.4396 36.0039 73.0903 36.5781 73.0903L48.4609 73.2192C48.7539 73.2192 49.1055 73.5825 49.1055 73.8755C49.1055 74.356 48.7773 74.7164 48.4609 74.7192C44.543 74.7544 36.5949 74.7192 36.1094 74.7192C35.7109 74.7192 35.4297 74.356 35.4297 73.8989Z" fill="#0063A9" stroke="white" stroke-width="0.0234375"/>
<path d="M29.7812 71.52L32.0312 68.8716H52.5742L55.0703 71.52H29.7812Z" fill="#0274C5" stroke="white" stroke-width="0.0234375"/>
<rect x="37.5391" y="41.6841" width="6.53906" height="6.65625" fill="white"/>
<rect x="47.9922" y="41.2622" width="5.78906" height="5.90625" fill="#7D7777" stroke="white" stroke-width="0.75"/>
<rect x="60.3672" y="39.3169" width="6.70312" height="6.79688" fill="#B3AEAE" stroke="white" stroke-width="0.75"/>
<rect x="70.0703" y="30.5747" width="13.1719" height="13.3359" fill="white"/>
<rect x="62.3125" y="17.6138" width="10.3594" height="10.0312" fill="#0285E2" stroke="white" stroke-width="0.75"/>
<rect x="50.2891" y="20.356" width="6.91406" height="7.40625" fill="#C2BDBD" stroke="white" stroke-width="0.75"/>
<rect x="40.7969" y="32.731" width="6.82031" height="6.89062" fill="white"/>
<rect x="52.9609" y="30.1997" width="7.59375" height="7.59375" fill="white"/>
<rect x="64.0938" y="6.69189" width="7.19531" height="7.17188" fill="#E8E2E2" stroke="white" stroke-width="0.75"/>
<rect x="75.1094" y="5.44971" width="16.5" height="16.4297" fill="white"/>
<g filter="url(#filter0_d_43_52)">
<path d="M140.504 44.424C141.416 46.92 141.872 49.896 141.872 53.352C141.872 56.664 141.464 59.568 140.648 62.064C139.544 65.328 137.768 67.896 135.32 69.768C132.92 71.64 130.064 72.576 126.752 72.576C123.248 72.576 120.488 71.256 118.472 68.616C118.376 68.52 118.28 68.496 118.184 68.544C118.088 68.544 118.04 68.616 118.04 68.76V71.136C118.04 71.376 117.944 71.592 117.752 71.784C117.608 71.928 117.416 72 117.176 72H108.752C108.512 72 108.296 71.928 108.104 71.784C107.96 71.592 107.888 71.376 107.888 71.136V22.464C107.888 22.224 107.96 22.032 108.104 21.888C108.296 21.696 108.512 21.6 108.752 21.6H117.176C117.416 21.6 117.608 21.696 117.752 21.888C117.944 22.032 118.04 22.224 118.04 22.464V37.872C118.04 38.016 118.088 38.112 118.184 38.16C118.28 38.208 118.376 38.16 118.472 38.016C120.344 35.616 123.008 34.416 126.464 34.416C129.968 34.416 132.896 35.328 135.248 37.152C137.648 38.928 139.4 41.352 140.504 44.424ZM129.848 60.768C130.856 58.944 131.36 56.544 131.36 53.568C131.36 50.256 130.784 47.712 129.632 45.936C128.48 44.064 126.776 43.128 124.52 43.128C122.408 43.128 120.8 44.064 119.696 45.936C118.64 47.76 118.112 50.28 118.112 53.496C118.112 56.712 118.592 59.136 119.552 60.768C120.704 62.832 122.384 63.864 124.592 63.864C126.944 63.864 128.696 62.832 129.848 60.768ZM153.997 30.816C152.365 30.816 150.997 30.288 149.893 29.232C148.837 28.128 148.309 26.76 148.309 25.128C148.309 23.448 148.837 22.08 149.893 21.024C150.949 19.968 152.317 19.44 153.997 19.44C155.677 19.44 157.045 19.968 158.101 21.024C159.157 22.08 159.685 23.448 159.685 25.128C159.685 26.76 159.133 28.128 158.029 29.232C156.973 30.288 155.629 30.816 153.997 30.816ZM149.677 72C149.437 72 149.221 71.928 149.029 71.784C148.885 71.592 148.813 71.376 148.813 71.136V35.784C148.813 35.544 148.885 35.352 149.029 35.208C149.221 35.016 149.437 34.92 149.677 34.92H158.101C158.341 34.92 158.533 35.016 158.677 35.208C158.869 35.352 158.965 35.544 158.965 35.784V71.136C158.965 71.376 158.869 71.592 158.677 71.784C158.533 71.928 158.341 72 158.101 72H149.677ZM188.117 42.264C188.117 42.504 188.021 42.72 187.829 42.912C187.685 43.056 187.493 43.128 187.253 43.128H180.341C180.101 43.128 179.981 43.248 179.981 43.488V58.752C179.981 60.336 180.293 61.512 180.917 62.28C181.589 63.048 182.645 63.432 184.085 63.432H186.461C186.701 63.432 186.893 63.528 187.037 63.72C187.229 63.864 187.325 64.056 187.325 64.296V71.136C187.325 71.664 187.037 71.976 186.461 72.072C184.445 72.168 183.005 72.216 182.141 72.216C178.157 72.216 175.181 71.568 173.213 70.272C171.245 68.928 170.237 66.432 170.189 62.784V43.488C170.189 43.248 170.069 43.128 169.829 43.128H165.725C165.485 43.128 165.269 43.056 165.077 42.912C164.933 42.72 164.861 42.504 164.861 42.264V35.856C164.861 35.616 164.933 35.424 165.077 35.28C165.269 35.088 165.485 34.992 165.725 34.992H169.829C170.069 34.992 170.189 34.872 170.189 34.632V26.064C170.189 25.824 170.261 25.632 170.405 25.488C170.597 25.296 170.813 25.2 171.053 25.2H179.117C179.357 25.2 179.549 25.296 179.693 25.488C179.885 25.632 179.981 25.824 179.981 26.064V34.632C179.981 34.872 180.101 34.992 180.341 34.992H187.253C187.493 34.992 187.685 35.088 187.829 35.28C188.021 35.424 188.117 35.616 188.117 35.856V42.264ZM208.988 72.504C205.772 72.504 202.964 72.048 200.564 71.136C198.164 70.224 196.292 68.952 194.948 67.32C193.652 65.688 193.004 63.84 193.004 61.776V61.056C193.004 60.816 193.076 60.624 193.22 60.48C193.412 60.288 193.628 60.192 193.868 60.192H201.86C202.1 60.192 202.292 60.288 202.436 60.48C202.628 60.624 202.724 60.816 202.724 61.056V61.128C202.724 62.184 203.3 63.096 204.452 63.864C205.652 64.584 207.14 64.944 208.916 64.944C210.548 64.944 211.868 64.632 212.876 64.008C213.884 63.336 214.388 62.52 214.388 61.56C214.388 60.696 213.956 60.048 213.092 59.616C212.228 59.184 210.812 58.728 208.844 58.248C206.588 57.672 204.812 57.12 203.516 56.592C200.444 55.536 197.996 54.24 196.172 52.704C194.348 51.168 193.436 48.96 193.436 46.08C193.436 42.528 194.804 39.72 197.54 37.656C200.324 35.544 203.996 34.488 208.556 34.488C211.628 34.488 214.316 34.992 216.62 36C218.924 36.96 220.7 38.328 221.948 40.104C223.244 41.88 223.892 43.896 223.892 46.152C223.892 46.392 223.796 46.608 223.604 46.8C223.46 46.944 223.268 47.016 223.028 47.016H215.324C215.084 47.016 214.868 46.944 214.676 46.8C214.532 46.608 214.46 46.392 214.46 46.152C214.46 45.096 213.908 44.208 212.804 43.488C211.748 42.768 210.332 42.408 208.556 42.408C206.972 42.408 205.676 42.696 204.668 43.272C203.66 43.848 203.156 44.64 203.156 45.648C203.156 46.608 203.636 47.328 204.596 47.808C205.604 48.288 207.26 48.792 209.564 49.32C210.092 49.464 210.692 49.632 211.364 49.824C212.036 49.968 212.756 50.16 213.524 50.4C216.932 51.408 219.62 52.704 221.588 54.288C223.556 55.872 224.54 58.176 224.54 61.2C224.54 64.752 223.124 67.536 220.292 69.552C217.508 71.52 213.74 72.504 208.988 72.504ZM263.129 44.424C264.041 46.92 264.497 49.896 264.497 53.352C264.497 56.664 264.089 59.568 263.273 62.064C262.169 65.328 260.393 67.896 257.945 69.768C255.545 71.64 252.689 72.576 249.377 72.576C245.873 72.576 243.113 71.256 241.097 68.616C241.001 68.52 240.905 68.496 240.809 68.544C240.713 68.544 240.665 68.616 240.665 68.76V71.136C240.665 71.376 240.569 71.592 240.377 71.784C240.233 71.928 240.041 72 239.801 72H231.377C231.137 72 230.921 71.928 230.729 71.784C230.585 71.592 230.513 71.376 230.513 71.136V22.464C230.513 22.224 230.585 22.032 230.729 21.888C230.921 21.696 231.137 21.6 231.377 21.6H239.801C240.041 21.6 240.233 21.696 240.377 21.888C240.569 22.032 240.665 22.224 240.665 22.464V37.872C240.665 38.016 240.713 38.112 240.809 38.16C240.905 38.208 241.001 38.16 241.097 38.016C242.969 35.616 245.633 34.416 249.089 34.416C252.593 34.416 255.521 35.328 257.873 37.152C260.273 38.928 262.025 41.352 263.129 44.424ZM252.473 60.768C253.481 58.944 253.985 56.544 253.985 53.568C253.985 50.256 253.409 47.712 252.257 45.936C251.105 44.064 249.401 43.128 247.145 43.128C245.033 43.128 243.425 44.064 242.321 45.936C241.265 47.76 240.737 50.28 240.737 53.496C240.737 56.712 241.217 59.136 242.177 60.768C243.329 62.832 245.009 63.864 247.217 63.864C249.569 63.864 251.321 62.832 252.473 60.768ZM269.317 86.328C269.173 86.328 269.053 86.232 268.957 86.04C268.861 85.896 268.813 85.704 268.813 85.464V78.84C268.813 78.6 268.885 78.384 269.029 78.192C269.221 78.048 269.437 77.976 269.677 77.976C271.693 77.928 273.277 77.76 274.429 77.472C275.629 77.184 276.565 76.632 277.237 75.816C277.957 75 278.509 73.8 278.893 72.216C278.941 72.12 278.941 71.976 278.893 71.784L267.085 35.928C267.037 35.832 267.013 35.712 267.013 35.568C267.013 35.136 267.277 34.92 267.805 34.92H276.805C277.333 34.92 277.669 35.16 277.813 35.64L283.861 58.968C283.909 59.112 283.981 59.184 284.077 59.184C284.173 59.184 284.245 59.112 284.293 58.968L290.341 35.64C290.485 35.16 290.821 34.92 291.349 34.92H300.133C300.421 34.92 300.613 35.016 300.709 35.208C300.853 35.352 300.877 35.592 300.781 35.928L288.325 73.368C287.125 76.872 285.901 79.488 284.653 81.216C283.405 82.992 281.653 84.288 279.397 85.104C277.141 85.92 273.949 86.328 269.821 86.328H269.317ZM327.054 42.264C327.054 42.504 326.958 42.72 326.766 42.912C326.622 43.056 326.43 43.128 326.19 43.128H319.278C319.038 43.128 318.918 43.248 318.918 43.488V58.752C318.918 60.336 319.23 61.512 319.854 62.28C320.526 63.048 321.582 63.432 323.022 63.432H325.398C325.638 63.432 325.83 63.528 325.974 63.72C326.166 63.864 326.262 64.056 326.262 64.296V71.136C326.262 71.664 325.974 71.976 325.398 72.072C323.382 72.168 321.942 72.216 321.078 72.216C317.094 72.216 314.118 71.568 312.15 70.272C310.182 68.928 309.174 66.432 309.126 62.784V43.488C309.126 43.248 309.006 43.128 308.766 43.128H304.662C304.422 43.128 304.206 43.056 304.014 42.912C303.87 42.72 303.798 42.504 303.798 42.264V35.856C303.798 35.616 303.87 35.424 304.014 35.28C304.206 35.088 304.422 34.992 304.662 34.992H308.766C309.006 34.992 309.126 34.872 309.126 34.632V26.064C309.126 25.824 309.198 25.632 309.342 25.488C309.534 25.296 309.75 25.2 309.99 25.2H318.054C318.294 25.2 318.486 25.296 318.63 25.488C318.822 25.632 318.918 25.824 318.918 26.064V34.632C318.918 34.872 319.038 34.992 319.278 34.992H326.19C326.43 34.992 326.622 35.088 326.766 35.28C326.958 35.424 327.054 35.616 327.054 35.856V42.264ZM365.434 49.68C365.722 51.504 365.818 53.544 365.722 55.8C365.674 56.376 365.362 56.664 364.786 56.664H342.538C342.25 56.664 342.154 56.784 342.25 57.024C342.394 57.984 342.658 58.944 343.042 59.904C344.29 62.592 346.834 63.936 350.674 63.936C353.746 63.888 356.17 62.64 357.946 60.192C358.138 59.904 358.354 59.76 358.594 59.76C358.738 59.76 358.906 59.856 359.098 60.048L364.282 65.16C364.522 65.4 364.642 65.616 364.642 65.808C364.642 65.904 364.546 66.096 364.354 66.384C362.77 68.352 360.73 69.888 358.234 70.992C355.738 72.048 353.002 72.576 350.026 72.576C345.898 72.576 342.394 71.64 339.514 69.768C336.682 67.896 334.642 65.28 333.394 61.92C332.386 59.52 331.882 56.376 331.882 52.488C331.882 49.848 332.242 47.52 332.962 45.504C334.066 42.096 335.986 39.384 338.722 37.368C341.506 35.352 344.794 34.344 348.586 34.344C353.386 34.344 357.226 35.736 360.106 38.52C363.034 41.304 364.81 45.024 365.434 49.68ZM348.658 43.128C345.634 43.128 343.642 44.544 342.682 47.376C342.49 48 342.322 48.768 342.178 49.68C342.178 49.92 342.298 50.04 342.538 50.04H354.994C355.282 50.04 355.378 49.92 355.282 49.68C355.042 48.288 354.922 47.616 354.922 47.664C354.49 46.224 353.722 45.12 352.618 44.352C351.562 43.536 350.242 43.128 348.658 43.128ZM386.246 72.504C383.03 72.504 380.222 72.048 377.822 71.136C375.422 70.224 373.55 68.952 372.206 67.32C370.91 65.688 370.262 63.84 370.262 61.776V61.056C370.262 60.816 370.334 60.624 370.478 60.48C370.67 60.288 370.886 60.192 371.126 60.192H379.118C379.358 60.192 379.55 60.288 379.694 60.48C379.886 60.624 379.982 60.816 379.982 61.056V61.128C379.982 62.184 380.558 63.096 381.71 63.864C382.91 64.584 384.398 64.944 386.174 64.944C387.806 64.944 389.126 64.632 390.134 64.008C391.142 63.336 391.646 62.52 391.646 61.56C391.646 60.696 391.214 60.048 390.35 59.616C389.486 59.184 388.07 58.728 386.102 58.248C383.846 57.672 382.07 57.12 380.774 56.592C377.702 55.536 375.254 54.24 373.43 52.704C371.606 51.168 370.694 48.96 370.694 46.08C370.694 42.528 372.062 39.72 374.798 37.656C377.582 35.544 381.254 34.488 385.814 34.488C388.886 34.488 391.574 34.992 393.878 36C396.182 36.96 397.958 38.328 399.206 40.104C400.502 41.88 401.15 43.896 401.15 46.152C401.15 46.392 401.054 46.608 400.862 46.8C400.718 46.944 400.526 47.016 400.286 47.016H392.582C392.342 47.016 392.126 46.944 391.934 46.8C391.79 46.608 391.718 46.392 391.718 46.152C391.718 45.096 391.166 44.208 390.062 43.488C389.006 42.768 387.59 42.408 385.814 42.408C384.23 42.408 382.934 42.696 381.926 43.272C380.918 43.848 380.414 44.64 380.414 45.648C380.414 46.608 380.894 47.328 381.854 47.808C382.862 48.288 384.518 48.792 386.822 49.32C387.35 49.464 387.95 49.632 388.622 49.824C389.294 49.968 390.014 50.16 390.782 50.4C394.19 51.408 396.878 52.704 398.846 54.288C400.814 55.872 401.798 58.176 401.798 61.2C401.798 64.752 400.382 67.536 397.55 69.552C394.766 71.52 390.998 72.504 386.246 72.504Z" fill="white"/>
</g>
<defs>
<filter id="filter0_d_43_52" x="103.888" y="19.4399" width="301.91" height="74.8882" filterUnits="userSpaceOnUse" color-interpolation-filters="sRGB">
<feFlood flood-opacity="0" result="BackgroundImageFix"/>
<feColorMatrix in="SourceAlpha" type="matrix" values="0 0 0 0 0 0 0 0 0 0 0 0 0 0 0 0 0 0 127 0" result="hardAlpha"/>
<feOffset dy="4"/>
<feGaussianBlur stdDeviation="2"/>
<feComposite in2="hardAlpha" operator="out"/>
<feColorMatrix type="matrix" values="0 0 0 0 0 0 0 0 0 0 0 0 0 0 0 0 0 0 0.25 0"/>
<feBlend mode="normal" in2="BackgroundImageFix" result="effect1_dropShadow_43_52"/>
<feBlend mode="normal" in="SourceGraphic" in2="effect1_dropShadow_43_52" result="shape"/>
</filter>
</defs>
</svg>
